PathFileType	4	(X/Y/Z)	6_coords_data.trc
DataRate	CameraRate	NumFrames	NumMarkers	Units	OrigDataRate	OrigDataStartFrame	OrigNumFrames
30.0	30.0	8	21	m	30.0	20	77
Frame#	Time	THUMB_TIP	THUMB_IP	THUMB_MCP	THUMB_CMC	INDEX_TIP	INDEX_DIP	INDEX_PIP	INDEX_MCP	MIDDLE_TIP	MIDDLE_DIP	MIDDLE_PIP	MIDDLE_MCP	RING_TIP	RING_DIP	RING_PIP	RING_MCP	PINKY_TIP	PINKY_DIP	PINKY_PIP	PINKY_MCP	WRIST
X1	Y1	Z1	X2	Y2	Z2	X3	Y3	Z3	X4	Y4	Z4	X5	Y5	Z5	X6	Y6	Z6	X7	Y7	Z7	X8	Y8	Z8	X9	Y9	Z9	X10	Y10	Z10	X11	Y11	Z11	X12	Y12	Z12	X13	Y13	Z13	X14	Y14	Z14	X15	Y15	Z15	X16	Y16	Z16	X17	Y17	Z17	X18	Y18	Z18	X19	Y19	Z19	X20	Y20	Z20	X21	Y21	Z21
19	0.6333333333333333	0.010411299705505372	-0.1528300018310547	1.0301400146484374	0.015483200073242187	-0.1244199981689453	1.0280699462890626	0.005534589767456055	-0.09422149658203124	1.0383499755859376	-0.001263270020484924	-0.05370209884643555	1.048469970703125	0.001857969999313354	-0.06471430206298828	1.0179099731445314	0.018516700744628908	-0.06201910018920898	1.0106300048828125	0.02456879997253418	-0.06383269882202149	0.9864359741210937	-0.015984100341796877	-0.07145700073242188	0.9894829711914063	0.010925299644470214	-0.04850600051879883	1.021989990234375	0.017578100204467772	-0.04528469848632812	1.015510009765625	0.023219499588012695	-0.04255020141601563	0.9865560302734375	-0.021318000793457033	-0.0473140983581543	0.9830549926757812	0.006303160190582275	-0.03241389846801758	1.0263499755859375	0.015413100242614747	-0.028787700653076172	1.0209199829101563	0.02430929946899414	-0.023736299514770506	0.9961749877929688	-0.017712600708007814	-0.02287229919433594	0.9876749877929687	0.002553590059280395	-0.014152299880981446	1.028239990234375	0.016661399841308593	-0.012702899932861328	1.0207899780273437	0.02146220016479492	-0.006907370090484619	1.0030399780273438	-0.009624790191650391	-0.0019020999670028682	0.9986829833984375	-0.021576799392700196	-0.02669499969482422	1.06631005859375
20	0.6666666666666666	0.010834600448608398	-0.1529669952392578	1.0305400390625	0.01586110019683838	-0.12458899688720704	1.02831005859375	0.0057323498725891115	-0.09432440185546875	1.0384000244140625	-0.001114709973335266	-0.0537677001953125	1.048510009765625	0.001926390051841735	-0.06467859649658203	1.0181400146484374	0.018581499099731447	-0.06211259841918945	1.01077001953125	0.024766399383544923	-0.06390340042114258	0.9867340087890625	-0.015843400001525877	-0.07151860046386718	0.98960400390625	0.010983699798583985	-0.04858209991455078	1.02227001953125	0.0177283992767334	-0.0453302001953125	1.0155399780273437	0.02340220069885254	-0.042594398498535156	0.98685302734375	-0.021093000411987306	-0.04739350128173828	0.9830960083007813	0.0071043701171875	-0.03239929962158203	1.025989990234375	0.015573399543762207	-0.02885460090637207	1.0209299926757813	0.024443599700927736	-0.023741199493408204	0.9963099975585937	-0.017552900314331054	-0.022944799423217775	0.9877620239257813	0.002687160015106201	-0.014316900253295899	1.027949951171875	0.01666309928894043	-0.012719300270080567	1.0209000244140625	0.02157349967956543	-0.006970069885253906	1.002989990234375	-0.00944888973236084	-0.001993370056152343	0.998708984375	-0.021532100677490236	-0.026848100662231447	1.0663399658203125
21	0.7	0.010949099540710449	-0.15303399658203126	1.03077001953125	0.015953499794006346	-0.12469100189208984	1.0283699951171874	0.005758840084075928	-0.09443199920654297	1.0384100341796876	-0.001185940027236938	-0.05384379959106445	1.0485799560546876	0.001747210025787353	-0.06476499938964844	1.0176900024414062	0.018563899993896484	-0.06211009979248047	1.0108699951171876	0.02484980010986328	-0.06402960205078125	0.9867260131835938	-0.015815199851989745	-0.07152439880371093	0.989572998046875	0.01102239990234375	-0.048607498168945315	1.02225	0.01781060028076172	-0.04538589859008789	1.0155999755859375	0.02344029998779297	-0.04260810089111328	0.9868209838867188	-0.021031299591064454	-0.0473765983581543	0.9831119995117188	0.00709499979019165	-0.03250299835205078	1.0260699462890626	0.015614199638366699	-0.02886330032348633	1.0209500122070312	0.02449250030517578	-0.023794700622558593	0.9963040161132812	-0.017466699600219727	-0.022919500350952148	0.987780029296875	0.002625169992446899	-0.014151800155639648	1.028010009765625	0.016820899963378905	-0.01277180004119873	1.0208900146484374	0.021635400772094728	-0.007000199794769287	1.0031400146484375	-0.00939072036743164	-0.001999160051345825	0.9987100219726562	-0.021530099868774414	-0.02689349937438965	1.0663599853515624
22	0.7333333333333333	0.011016400337219238	-0.15286599731445313	1.0308499755859375	0.015968799591064453	-0.1245510025024414	1.0284300537109374	0.0056403098106384275	-0.09411650085449219	1.03843994140625	-0.001232570052146911	-0.05368170166015625	1.0483699951171874	0.001993989944458007	-0.06436949920654297	1.0184000244140625	0.018432199478149416	-0.061882198333740236	1.0108599853515625	0.024697099685668945	-0.06367219924926758	0.9866510009765626	-0.015870699882507323	-0.07123690032958985	0.9894110107421875	0.010867500305175781	-0.04839020156860351	1.0223499755859375	0.017684200286865234	-0.04515420150756836	1.0155700073242186	0.023554000854492187	-0.04244900131225586	0.9872310180664062	-0.021112600326538087	-0.04710649871826172	0.9830360107421875	0.006883820056915283	-0.03250019836425781	1.0258499755859376	0.015536700248718262	-0.02867880058288574	1.0209099731445312	0.0245531005859375	-0.023621299743652343	0.9963800048828125	-0.017503400802612305	-0.0226776008605957	0.9877039794921875	0.0026309499740600584	-0.014103099822998047	1.02793994140625	0.0167814998626709	-0.012599499702453613	1.0208800048828126	0.02162100028991699	-0.006840730190277099	1.0030900268554688	-0.00943474006652832	-0.0017633399963378903	0.9987160034179687	-0.021603900909423827	-0.0266737003326416	1.06622998046875
23	0.7666666666666667	0.011184300422668457	-0.152625	1.030989990234375	0.01607900047302246	-0.12429599761962891	1.028489990234375	0.005633450031280517	-0.09400350189208985	1.0384300537109374	-0.0012662999629974362	-0.05352880096435547	1.0483499755859376	0.0018122400045394891	-0.06430079650878906	1.018030029296875	0.018413999557495116	-0.061679698944091796	1.0109000244140625	0.024664199829101563	-0.06350139999389648	0.9866290283203125	-0.01604210090637207	-0.07096779632568359	0.9894840087890625	0.010756600379943847	-0.04818040084838867	1.0223099975585936	0.017605199813842773	-0.04492390060424805	1.0155499877929688	0.02357929992675781	-0.042200000762939456	0.9872230224609375	-0.021221799850463866	-0.046860298156738284	0.9830590209960938	0.006507410049438477	-0.032255599975585934	1.0263399658203125	0.015466600418090821	-0.028476900100708007	1.0209600219726562	0.024457300186157226	-0.023321300506591796	0.9963660278320312	-0.017548599243164063	-0.022432199478149416	0.987708984375	0.0026223399639129638	-0.013832699775695801	1.02797998046875	0.016758399963378905	-0.012411399841308594	1.0209299926757813	0.021576499938964842	-0.006602369785308838	1.00302001953125	-0.009481260299682617	-0.001508340001106262	0.9987050170898437	-0.02159510040283203	-0.026524499893188478	1.0666600341796875
24	0.8	0.011312399864196777	-0.1524149932861328	1.0309100341796875	0.01611050033569336	-0.12406600189208984	1.028449951171875	0.005651509761810303	-0.09372280120849609	1.03843994140625	-0.001373729944229126	-0.053253799438476565	1.048510009765625	0.001769680023193359	-0.0640530014038086	1.0181300048828126	0.018398799896240235	-0.061452598571777345	1.0107100219726564	0.024656200408935548	-0.06319879913330079	0.9866510009765626	-0.016019199371337892	-0.07068430328369141	0.9894639892578125	0.010828900337219238	-0.04794800186157227	1.0223200073242187	0.0176914005279541	-0.04472639846801758	1.0155999755859375	0.023463699340820314	-0.041954200744628904	0.9871190185546875	-0.021195899963378905	-0.04659360122680664	0.9830989990234374	0.006786709785461426	-0.03197920036315918	1.02672998046875	0.015454899787902833	-0.028258800506591797	1.020969970703125	0.024498600006103516	-0.02313800048828125	0.9963779907226562	-0.0175674991607666	-0.02218510055541992	0.9877880249023437	0.002700429916381836	-0.013684900283813476	1.027800048828125	0.01675830078125	-0.012182600021362304	1.020969970703125	0.02155660057067871	-0.006350359916687012	1.0034099731445312	-0.00950712013244629	-0.001290210008621215	0.9987589721679687	-0.021662399291992186	-0.026390800476074217	1.066489990234375
25	0.8333333333333334	0.010920499801635742	-0.15226600646972657	1.030800048828125	0.01580459976196289	-0.12391300201416015	1.0283900146484375	0.005458570003509521	-0.0936614990234375	1.0383599853515626	-0.001578750014305114	-0.0530885009765625	1.04852001953125	0.001739439964294433	-0.06375460052490234	1.0184600219726563	0.018223400115966796	-0.0612755012512207	1.0106799926757812	0.024489099502563477	-0.06313970184326172	0.9867349853515625	-0.016107400894165038	-0.0705376968383789	0.9893930053710938	0.010746399879455566	-0.04778810119628906	1.022219970703125	0.01740519905090332	-0.04453049850463867	1.0153300170898438	0.02322050094604492	-0.04179629898071289	0.98685302734375	-0.021320299148559572	-0.04637720108032226	0.9830830078125	0.006389589786529541	-0.031798500061035156	1.0261400146484374	0.01532289981842041	-0.028052099227905275	1.0209299926757813	0.024312200546264647	-0.02292799949645996	0.9963460083007812	-0.0177007999420166	-0.02195199966430664	0.9878070068359375	0.002518320083618164	-0.013443300247192383	1.0278699951171875	0.016652700424194335	-0.011981599807739258	1.0209500122070312	0.021466800689697266	-0.006187059879302978	1.0030999755859376	-0.009679759979248047	-0.0010632100105285641	0.998927001953125	-0.021694299697875976	-0.026196800231933593	1.0666700439453125
26	0.8666666666666667	0.01106149959564209	-0.1521219940185547	1.0309000244140625	0.015914400100708007	-0.12380899810791016	1.0284200439453124	0.0054010400772094725	-0.09356369781494141	1.0383399658203125	-0.0015810199975967402	-0.053001399993896484	1.04852001953125	0.0015758099555969228	-0.06358050155639648	1.0183800048828124	0.018183399200439453	-0.06112060165405273	1.010780029296875	0.02444930076599121	-0.06305879974365235	0.9865579833984375	-0.01620240020751953	-0.07034320068359375	0.989531005859375	0.010810999870300294	-0.04764939880371094	1.0222100219726562	0.017559799194335937	-0.04436550140380859	1.0155999755859375	0.023161199569702147	-0.041583499908447265	0.9866510009765626	-0.021382999420166016	-0.04622560119628906	0.9831630249023438	0.006551229953765869	-0.031697999954223635	1.0261099853515625	0.015322799682617188	-0.02790719985961914	1.0209299926757813	0.024268199920654297	-0.022750400543212892	0.996375	-0.017716299057006835	-0.021792800903320312	0.9878469848632813	0.0025182099342346193	-0.013422800064086913	1.028219970703125	0.016572399139404295	-0.011833200454711914	1.02102001953125	0.021423200607299804	-0.006007800102233887	1.0032000122070313	-0.009764840126037597	-0.0009114959836006161	0.99889599609375	-0.021735599517822266	-0.026059099197387695	1.066510009765625
